{
	"asset":{
		"generator":"Khronos glTF Blender I/O v4.2.57",
		"version":"2.0"
	},
	"extensionsUsed":[
		"KHR_materials_unlit"
	],
	"scene":0,
	"scenes":[
		{
			"name":"Scene",
			"nodes":[
				0,
				2,
				3,
				4,
				5,
				6
			]
		}
	],
	"nodes":[
		{
			"mesh":0,
			"name":"Plane"
		},
		{
			"mesh":1,
			"name":"DA_Misc_PS1.002"
		},
		{
			"children":[
				1
			],
			"mesh":2,
			"name":"DA_PS1.004",
			"translation":[
				0,
				0.014685453847050667,
				0
			]
		},
		{
			"mesh":3,
			"name":"Wheel_DA_PS1_FL",
			"translation":[
				0.8299999833106995,
				0.30162546038627625,
				1.5515300035476685
			]
		},
		{
			"mesh":3,
			"name":"Wheel_DA_PS1_FR",
			"rotation":[
				0,
				-1,
				0,
				1.6292068494294654e-07
			],
			"translation":[
				-0.8299999833106995,
				0.30162546038627625,
				1.5515300035476685
			]
		},
		{
			"mesh":3,
			"name":"Wheel_DA_PS1_RL",
			"translation":[
				0.8299999833106995,
				0.30162546038627625,
				-1.4574899673461914
			]
		},
		{
			"mesh":3,
			"name":"Wheel_DA_PS1_RR",
			"rotation":[
				0,
				-1,
				0,
				1.6292068494294654e-07
			],
			"translation":[
				-0.8299999833106995,
				0.30162546038627625,
				-1.4574899673461914
			]
		}
	],
	"materials":[
		{
			"alphaMode":"BLEND",
			"extensions":{
				"KHR_materials_unlit":{}
			},
			"name":"DaleAristocrat_PS1",
			"pbrMetallicRoughness":{
				"baseColorTexture":{
					"index":0
				},
				"metallicFactor":0,
				"roughnessFactor":0.9
			}
		}
	],
	"meshes":[
		{
			"name":"Plane",
			"primitives":[
				{
					"attributes":{
						"POSITION":0,
						"NORMAL":1,
						"TEXCOORD_0":2
					},
					"indices":3,
					"material":0
				}
			]
		},
		{
			"name":"Cube.003",
			"primitives":[
				{
					"attributes":{
						"POSITION":4,
						"NORMAL":5,
						"TEXCOORD_0":6
					},
					"indices":7,
					"material":0
				}
			]
		},
		{
			"name":"Cube.002",
			"primitives":[
				{
					"attributes":{
						"POSITION":8,
						"NORMAL":9,
						"TEXCOORD_0":10,
						"COLOR_0":11
					},
					"indices":12,
					"material":0
				}
			]
		},
		{
			"name":"Cylinder.003",
			"primitives":[
				{
					"attributes":{
						"POSITION":13,
						"NORMAL":14,
						"TEXCOORD_0":15,
						"COLOR_0":16
					},
					"indices":17,
					"material":0
				}
			]
		}
	],
	"textures":[
		{
			"sampler":0,
			"source":0
		}
	],
	"images":[
		{
			"mimeType":"image/png",
			"name":"DaleAristocrat_PS1",
			"uri":"DaleAristocrat_PS1.png"
		}
	],
	"accessors":[
		{
			"bufferView":0,
			"componentType":5126,
			"count":14,
			"max":[
				1.009047269821167,
				0,
				2.5763282775878906
			],
			"min":[
				-1.009047269821167,
				0,
				-2.8025283813476562
			],
			"type":"VEC3"
		},
		{
			"bufferView":1,
			"componentType":5126,
			"count":14,
			"type":"VEC3"
		},
		{
			"bufferView":2,
			"componentType":5126,
			"count":14,
			"type":"VEC2"
		},
		{
			"bufferView":3,
			"componentType":5123,
			"count":36,
			"type":"SCALAR"
		},
		{
			"bufferView":4,
			"componentType":5126,
			"count":90,
			"max":[
				0.9860301613807678,
				0.7888678908348083,
				2.5356719493865967
			],
			"min":[
				-0.9860301613807678,
				0.17243576049804688,
				-2.7685394287109375
			],
			"type":"VEC3"
		},
		{
			"bufferView":5,
			"componentType":5126,
			"count":90,
			"type":"VEC3"
		},
		{
			"bufferView":6,
			"componentType":5126,
			"count":90,
			"type":"VEC2"
		},
		{
			"bufferView":7,
			"componentType":5123,
			"count":264,
			"type":"SCALAR"
		},
		{
			"bufferView":8,
			"componentType":5126,
			"count":275,
			"max":[
				1.0587797164916992,
				1.4013957977294922,
				2.625466823577881
			],
			"min":[
				-1.0587797164916992,
				0.17243576049804688,
				-2.7953407764434814
			],
			"type":"VEC3"
		},
		{
			"bufferView":9,
			"componentType":5126,
			"count":275,
			"type":"VEC3"
		},
		{
			"bufferView":10,
			"componentType":5126,
			"count":275,
			"type":"VEC2"
		},
		{
			"bufferView":11,
			"componentType":5123,
			"count":275,
			"normalized":true,
			"type":"VEC4"
		},
		{
			"bufferView":12,
			"componentType":5123,
			"count":978,
			"type":"SCALAR"
		},
		{
			"bufferView":13,
			"componentType":5126,
			"count":105,
			"max":[
				0.12405938655138016,
				0.3360217213630676,
				0.3360217213630676
			],
			"min":[
				-0.14990702271461487,
				-0.3360217213630676,
				-0.3360217213630676
			],
			"type":"VEC3"
		},
		{
			"bufferView":14,
			"componentType":5126,
			"count":105,
			"type":"VEC3"
		},
		{
			"bufferView":15,
			"componentType":5126,
			"count":105,
			"type":"VEC2"
		},
		{
			"bufferView":16,
			"componentType":5123,
			"count":105,
			"normalized":true,
			"type":"VEC4"
		},
		{
			"bufferView":17,
			"componentType":5123,
			"count":234,
			"type":"SCALAR"
		}
	],
	"bufferViews":[
		{
			"buffer":0,
			"byteLength":168,
			"byteOffset":0,
			"target":34962
		},
		{
			"buffer":0,
			"byteLength":168,
			"byteOffset":168,
			"target":34962
		},
		{
			"buffer":0,
			"byteLength":112,
			"byteOffset":336,
			"target":34962
		},
		{
			"buffer":0,
			"byteLength":72,
			"byteOffset":448,
			"target":34963
		},
		{
			"buffer":0,
			"byteLength":1080,
			"byteOffset":520,
			"target":34962
		},
		{
			"buffer":0,
			"byteLength":1080,
			"byteOffset":1600,
			"target":34962
		},
		{
			"buffer":0,
			"byteLength":720,
			"byteOffset":2680,
			"target":34962
		},
		{
			"buffer":0,
			"byteLength":528,
			"byteOffset":3400,
			"target":34963
		},
		{
			"buffer":0,
			"byteLength":3300,
			"byteOffset":3928,
			"target":34962
		},
		{
			"buffer":0,
			"byteLength":3300,
			"byteOffset":7228,
			"target":34962
		},
		{
			"buffer":0,
			"byteLength":2200,
			"byteOffset":10528,
			"target":34962
		},
		{
			"buffer":0,
			"byteLength":2200,
			"byteOffset":12728,
			"target":34962
		},
		{
			"buffer":0,
			"byteLength":1956,
			"byteOffset":14928,
			"target":34963
		},
		{
			"buffer":0,
			"byteLength":1260,
			"byteOffset":16884,
			"target":34962
		},
		{
			"buffer":0,
			"byteLength":1260,
			"byteOffset":18144,
			"target":34962
		},
		{
			"buffer":0,
			"byteLength":840,
			"byteOffset":19404,
			"target":34962
		},
		{
			"buffer":0,
			"byteLength":840,
			"byteOffset":20244,
			"target":34962
		},
		{
			"buffer":0,
			"byteLength":468,
			"byteOffset":21084,
			"target":34963
		}
	],
	"samplers":[
		{
			"magFilter":9728,
			"minFilter":9984
		}
	],
	"buffers":[
		{
			"byteLength":21552,
			"uri":"Dale Aristocrat PS1.bin"
		}
	]
}
