{"accessors" : [{"bufferView" : 0, "byteOffset" : 0, "componentType" : 5123, "count" : 18768, "type" : "SCALAR", "max" : [18767], "min" : [0]}, {"bufferView" : 1, "byteOffset" : 0, "componentType" : 5126, "count" : 18768, "type" : "VEC3", "max" : [1.5, 1, 1.899999976158142], "min" : [-1.5, -1, 0], "name" : "POSITION"}, {"bufferView" : 1, "byteOffset" : 12, "componentType" : 5126, "count" : 18768, "type" : "VEC3", "max" : [0.8666666746139526, 1, 1], "min" : [0, 0, 0], "name" : "COLOR_0"}], "asset" : {"generator" : "Aspose.3D 23.9.0", "version" : "2.0"}, "buffers" : [{"uri" : "data:application/octet-stream;base64,", "byteLength" : 487976}], "bufferViews" : [{"buffer" : 0, "byteOffset" : 0, "byteLength" : 37536, "target" : 34963}, {"buffer" : 0, "byteOffset" : 37540, "byteLength" : 450432, "byteStride" : 24, "target" : 34962}], "meshes" : [{"primitives" : [{"attributes" : {"POSITION" : 1, "COLOR_0" : 2}, "indices" : 0, "mode" : 4}], "name" : ""}], "nodes" : [{"mesh" : 0, "name" : "model"}], "scene" : 0, "scenes" : [{"nodes" : [0]}]}