# MagicaVoxel @ Ephtracy

# group
o 

# material
mtllib first_building.mtl
usemtl palette

# normals
vn -1 0 0
vn 1 0 0
vn 0 0 1
vn 0 0 -1
vn 0 -1 0
vn 0 1 0

# texcoords
vt 0.341797 0.5
vt 0.587891 0.5
vt 0.869141 0.5
vt 0.873047 0.5
vt 0.958984 0.5
vt 0.974609 0.5
vt 0.978516 0.5

# verts
v -2.5 0 2.5
v -2.5 0 -2.5
v -2.5 1.3 2.5
v -2.5 1.3 -2.5
v -2.5 2.7 2.5
v -2.5 2.7 -2.5
v -2.5 3.8 2.5
v -2.5 3.8 -2.5
v -2.5 4.7 2.5
v -2.5 4.7 -2.5
v -2.5 5.6 2.5
v -2.5 5.6 -2.5
v 0.4 1 1.6
v 0.4 1 1.5
v 0.4 1.1 1.7
v 0.4 1.1 1.6
v 0.4 1.2 1.7
v 0.4 1.2 1.6
v 0.4 1.3 1.6
v 0.4 1.3 1.5
v 0.7 0 2.5
v 0.7 0 1.5
v 0.7 1.3 2.5
v 0.7 1.3 1.5
v 0.7 2.7 2.5
v 0.7 2.7 1.5
v 0.7 2.9 2.5
v 0.7 2.9 1.5
v 2.1 3.8 2.5
v 2.1 3.8 2.4
v 2.1 4.7 2.5
v 2.1 4.7 2.4
v 2.1 5.2 2.5
v 2.1 5.2 2.4
v -2.2 3.8 2.5
v -2.2 3.8 2.4
v -2.2 4.7 2.5
v -2.2 4.7 2.4
v -2.2 5.2 2.5
v -2.2 5.2 2.4
v -0.8 0 2.5
v -0.8 0 1.5
v -0.8 1.3 2.5
v -0.8 1.3 1.5
v -0.8 2.7 2.5
v -0.8 2.7 1.5
v -0.8 2.9 2.5
v -0.8 2.9 1.5
v 0.6 1 1.6
v 0.6 1 1.5
v 0.6 1.1 1.7
v 0.6 1.1 1.6
v 0.6 1.2 1.7
v 0.6 1.2 1.6
v 0.6 1.3 1.6
v 0.6 1.3 1.5
v 2.5 0 2.5
v 2.5 0 -2.5
v 2.5 1.3 2.5
v 2.5 1.3 -2.5
v 2.5 2.7 2.5
v 2.5 2.7 -2.5
v 2.5 3.8 2.5
v 2.5 3.8 -2.5
v 2.5 4.7 2.5
v 2.5 4.7 -2.5
v 2.5 5.6 2.5
v 2.5 5.6 -2.5
v -2.5 0 2.5
v -2.5 1.3 2.5
v -2.5 2.7 2.5
v -2.5 3.8 2.5
v -2.5 4.7 2.5
v -2.5 5.6 2.5
v -2.2 3.8 2.5
v -2.2 4.7 2.5
v -2.2 5.2 2.5
v -0.8 0 2.5
v -0.8 1.3 2.5
v -0.8 2.7 2.5
v -0.8 2.9 2.5
v 0.7 0 2.5
v 0.7 1.3 2.5
v 0.7 2.7 2.5
v 0.7 2.9 2.5
v 2.1 3.8 2.5
v 2.1 4.7 2.5
v 2.1 5.2 2.5
v 2.5 0 2.5
v 2.5 1.3 2.5
v 2.5 2.7 2.5
v 2.5 3.8 2.5
v 2.5 4.7 2.5
v 2.5 5.6 2.5
v -2.2 3.8 2.4
v -2.2 4.7 2.4
v -2.2 5.2 2.4
v -2.1 5 2.4
v -2.1 5.1 2.4
v -2 4 2.4
v -2 4.1 2.4
v -2 5 2.4
v -2 5.1 2.4
v -1.9 4 2.4
v -1.9 4.1 2.4
v -1.9 4.3 2.4
v -1.9 5 2.4
v -1.9 5.1 2.4
v -1.8 4.1 2.4
v -1.8 4.3 2.4
v -1.8 4.4 2.4
v -1.7 4.3 2.4
v -1.7 4.4 2.4
v -1.7 4.5 2.4
v -1.6 4.4 2.4
v -1.6 4.5 2.4
v -1.6 4.7 2.4
v -1.5 4.5 2.4
v -1.5 4.7 2.4
v -1.5 4.8 2.4
v -1.4 4.7 2.4
v -1.4 4.8 2.4
v -1.2 4.1 2.4
v -1.2 4.2 2.4
v -1.1 4.1 2.4
v -1.1 4.2 2.4
v -1.1 4.3 2.4
v -1 4.2 2.4
v -1 4.3 2.4
v -1 4.4 2.4
v -0.9 4.3 2.4
v -0.9 4.4 2.4
v -0.9 4.5 2.4
v -0.8 4.4 2.4
v -0.8 4.5 2.4
v -0.8 4.6 2.4
v -0.7 4.5 2.4
v -0.7 4.6 2.4
v -0.7 4.7 2.4
v -0.6 4.6 2.4
v -0.6 4.7 2.4
v -0.6 4.8 2.4
v -0.5 4.7 2.4
v -0.5 4.8 2.4
v -0.5 4.9 2.4
v -0.4 4.8 2.4
v -0.4 4.9 2.4
v -0.2 4.1 2.4
v -0.2 4.2 2.4
v -0.2 5 2.4
v -0.2 5.1 2.4
v -0.0999999 4.1 2.4
v -0.0999999 4.2 2.4
v -0.0999999 4.3 2.4
v 2.38419e-07 4.2 2.4
v 2.38419e-07 4.3 2.4
v 2.38419e-07 4.4 2.4
v 2.38419e-07 5 2.4
v 2.38419e-07 5.1 2.4
v 0.2 4.3 2.4
v 0.2 4.4 2.4
v 0.2 4.5 2.4
v 0.3 4.4 2.4
v 0.3 4.5 2.4
v 0.3 4.6 2.4
v 0.4 4.5 2.4
v 0.4 4.6 2.4
v 0.4 4.7 2.4
v 0.6 4.6 2.4
v 0.6 4.7 2.4
v 0.6 4.8 2.4
v 0.7 4.7 2.4
v 0.7 4.8 2.4
v 0.9 4 2.4
v 0.9 4.1 2.4
v 1 4 2.4
v 1 4.1 2.4
v 1 4.2 2.4
v 1.1 4.1 2.4
v 1.1 4.2 2.4
v 1.1 4.3 2.4
v 1.2 4.2 2.4
v 1.2 4.3 2.4
v 1.2 4.4 2.4
v 1.3 4.3 2.4
v 1.3 4.4 2.4
v 1.3 4.5 2.4
v 1.5 4.4 2.4
v 1.5 4.5 2.4
v 1.5 4.6 2.4
v 1.6 4.5 2.4
v 1.6 4.6 2.4
v 1.6 4.7 2.4
v 1.7 4.6 2.4
v 1.7 4.7 2.4
v 1.7 4.8 2.4
v 1.8 4.7 2.4
v 1.8 4.8 2.4
v 2 5 2.4
v 2 5.1 2.4
v 2.1 3.8 2.4
v 2.1 4.7 2.4
v 2.1 5.2 2.4
v 0.4 1.1 1.7
v 0.4 1.2 1.7
v 0.6 1.1 1.7
v 0.6 1.2 1.7
v 0.4 1 1.6
v 0.4 1.1 1.6
v 0.4 1.2 1.6
v 0.4 1.3 1.6
v 0.6 1 1.6
v 0.6 1.1 1.6
v 0.6 1.2 1.6
v 0.6 1.3 1.6
v -0.8 0 1.5
v -0.8 1.3 1.5
v -0.8 2.7 1.5
v -0.8 2.9 1.5
v -0.7 0 1.5
v -0.7 2.1 1.5
v -0.6 2.1 1.5
v -0.6 2.8 1.5
v -0.5 2.7 1.5
v -0.5 2.8 1.5
v 0.4 1 1.5
v 0.4 1.3 1.5
v 0.4 2.4 1.5
v 0.4 2.7 1.5
v 0.5 1.7 1.5
v 0.5 2.4 1.5
v 0.6 0 1.5
v 0.6 1 1.5
v 0.6 1.3 1.5
v 0.6 1.7 1.5
v 0.7 0 1.5
v 0.7 1.3 1.5
v 0.7 2.7 1.5
v 0.7 2.9 1.5
v -2.5 0 -2.5
v -2.5 1.3 -2.5
v -2.5 2.7 -2.5
v -2.5 3.8 -2.5
v -2.5 4.7 -2.5
v -2.5 5.6 -2.5
v 2.5 0 -2.5
v 2.5 1.3 -2.5
v 2.5 2.7 -2.5
v 2.5 3.8 -2.5
v 2.5 4.7 -2.5
v 2.5 5.6 -2.5
v -2.5 0 2.5
v -0.8 0 2.5
v 0.7 0 2.5
v 2.5 0 2.5
v -0.8 0 1.5
v -0.7 0 1.5
v 0.6 0 1.5
v 0.7 0 1.5
v -0.8 0 1.4
v -0.7 0 1.4
v 0.6 0 1.4
v 0.7 0 1.4
v -0.8 0 1.2
v 0.7 0 1.2
v -2.5 0 -2.5
v 2.5 0 -2.5
v 0.4 1 1.6
v 0.6 1 1.6
v 0.4 1 1.5
v 0.6 1 1.5
v 0.4 1.1 1.7
v 0.6 1.1 1.7
v 0.4 1.1 1.6
v 0.6 1.1 1.6
v -0.8 2.9 2.5
v 0.7 2.9 2.5
v -0.8 2.9 1.5
v 0.7 2.9 1.5
v -2.2 5.2 2.5
v 2.1 5.2 2.5
v -2.2 5.2 2.4
v 2.1 5.2 2.4
v 0.4 1.2 1.7
v 0.6 1.2 1.7
v 0.4 1.2 1.6
v 0.6 1.2 1.6
v 0.4 1.3 1.6
v 0.6 1.3 1.6
v 0.4 1.3 1.5
v 0.6 1.3 1.5
v -2.2 3.8 2.5
v 2.1 3.8 2.5
v -2.2 3.8 2.4
v 2.1 3.8 2.4
v -2.5 5.6 2.5
v 2.5 5.6 2.5
v -2.5 5.6 -2.5
v 2.5 5.6 -2.5

# faces
f 3/6/1 2/6/1 1/6/1
f 4/6/1 2/6/1 3/6/1
f 5/7/1 4/7/1 3/7/1
f 6/7/1 4/7/1 5/7/1
f 7/6/1 6/6/1 5/6/1
f 8/6/1 6/6/1 7/6/1
f 9/7/1 8/7/1 7/7/1
f 10/7/1 8/7/1 9/7/1
f 11/6/1 10/6/1 9/6/1
f 12/6/1 10/6/1 11/6/1
f 16/1/1 14/1/1 13/1/1
f 17/1/1 16/1/1 15/1/1
f 18/1/1 14/1/1 16/1/1
f 18/1/1 16/1/1 17/1/1
f 19/1/1 14/1/1 18/1/1
f 20/1/1 14/1/1 19/1/1
f 23/6/1 22/6/1 21/6/1
f 24/6/1 22/6/1 23/6/1
f 25/7/1 24/7/1 23/7/1
f 26/7/1 24/7/1 25/7/1
f 27/6/1 26/6/1 25/6/1
f 28/6/1 26/6/1 27/6/1
f 31/7/1 30/7/1 29/7/1
f 32/7/1 30/7/1 31/7/1
f 33/6/1 32/6/1 31/6/1
f 34/6/1 32/6/1 33/6/1
f 35/7/2 36/7/2 37/7/2
f 37/7/2 36/7/2 38/7/2
f 37/6/2 38/6/2 39/6/2
f 39/6/2 38/6/2 40/6/2
f 41/6/2 42/6/2 43/6/2
f 43/6/2 42/6/2 44/6/2
f 43/7/2 44/7/2 45/7/2
f 45/7/2 44/7/2 46/7/2
f 45/6/2 46/6/2 47/6/2
f 47/6/2 46/6/2 48/6/2
f 49/1/2 50/1/2 52/1/2
f 51/1/2 52/1/2 53/1/2
f 52/1/2 50/1/2 54/1/2
f 53/1/2 52/1/2 54/1/2
f 54/1/2 50/1/2 55/1/2
f 55/1/2 50/1/2 56/1/2
f 57/6/2 58/6/2 59/6/2
f 59/6/2 58/6/2 60/6/2
f 59/7/2 60/7/2 61/7/2
f 61/7/2 60/7/2 62/7/2
f 61/6/2 62/6/2 63/6/2
f 63/6/2 62/6/2 64/6/2
f 63/7/2 64/7/2 65/7/2
f 65/7/2 64/7/2 66/7/2
f 65/6/2 66/6/2 67/6/2
f 67/6/2 66/6/2 68/6/2
f 75/6/3 72/6/3 71/6/3
f 75/7/3 73/7/3 72/7/3
f 76/6/3 74/6/3 73/6/3
f 76/7/3 73/7/3 75/7/3
f 77/6/3 74/6/3 76/6/3
f 78/6/3 70/6/3 69/6/3
f 79/7/3 71/7/3 70/7/3
f 79/6/3 70/6/3 78/6/3
f 80/6/3 75/6/3 71/6/3
f 80/7/3 71/7/3 79/7/3
f 81/6/3 75/6/3 80/6/3
f 85/6/3 75/6/3 81/6/3
f 86/6/3 75/6/3 85/6/3
f 86/6/3 85/6/3 84/6/3
f 88/6/3 74/6/3 77/6/3
f 89/6/3 83/6/3 82/6/3
f 90/7/3 84/7/3 83/7/3
f 90/6/3 83/6/3 89/6/3
f 91/6/3 86/6/3 84/6/3
f 91/7/3 84/7/3 90/7/3
f 92/7/3 87/7/3 86/7/3
f 92/6/3 86/6/3 91/6/3
f 93/6/3 88/6/3 87/6/3
f 93/7/3 87/7/3 92/7/3
f 94/6/3 74/6/3 88/6/3
f 94/6/3 88/6/3 93/6/3
f 98/2/3 96/2/3 95/2/3
f 98/2/3 97/2/3 96/2/3
f 99/2/3 97/2/3 98/2/3
f 100/2/3 98/2/3 95/2/3
f 101/2/3 98/2/3 100/2/3
f 102/5/3 99/5/3 98/5/3
f 102/2/3 98/2/3 101/2/3
f 103/2/3 97/2/3 99/2/3
f 103/5/3 99/5/3 102/5/3
f 104/5/3 101/5/3 100/5/3
f 104/2/3 100/2/3 95/2/3
f 105/2/3 102/2/3 101/2/3
f 105/5/3 101/5/3 104/5/3
f 105/2/3 103/2/3 102/2/3
f 106/2/3 103/2/3 105/2/3
f 107/2/3 103/2/3 106/2/3
f 108/2/3 97/2/3 103/2/3
f 108/2/3 103/2/3 107/2/3
f 109/2/3 105/2/3 104/2/3
f 109/5/3 106/5/3 105/5/3
f 110/2/3 107/2/3 106/2/3
f 110/5/3 106/5/3 109/5/3
f 111/2/3 107/2/3 110/2/3
f 112/2/3 110/2/3 109/2/3
f 112/5/3 111/5/3 110/5/3
f 113/2/3 107/2/3 111/2/3
f 113/5/3 111/5/3 112/5/3
f 114/2/3 107/2/3 113/2/3
f 115/2/3 113/2/3 112/2/3
f 115/5/3 114/5/3 113/5/3
f 116/2/3 107/2/3 114/2/3
f 116/5/3 114/5/3 115/5/3
f 117/2/3 107/2/3 116/2/3
f 118/2/3 116/2/3 115/2/3
f 118/5/3 117/5/3 116/5/3
f 119/2/3 107/2/3 117/2/3
f 119/5/3 117/5/3 118/5/3
f 120/2/3 107/2/3 119/2/3
f 121/2/3 119/2/3 118/2/3
f 121/5/3 120/5/3 119/5/3
f 122/2/3 107/2/3 120/2/3
f 122/5/3 120/5/3 121/5/3
f 123/2/3 109/2/3 104/2/3
f 123/2/3 112/2/3 109/2/3
f 123/2/3 122/2/3 121/2/3
f 123/2/3 121/2/3 118/2/3
f 123/2/3 118/2/3 115/2/3
f 123/2/3 115/2/3 112/2/3
f 124/2/3 122/2/3 123/2/3
f 125/2/3 123/2/3 104/2/3
f 125/5/3 124/5/3 123/5/3
f 126/2/3 122/2/3 124/2/3
f 126/5/3 124/5/3 125/5/3
f 127/2/3 122/2/3 126/2/3
f 128/2/3 126/2/3 125/2/3
f 128/5/3 127/5/3 126/5/3
f 129/2/3 122/2/3 127/2/3
f 129/5/3 127/5/3 128/5/3
f 130/2/3 122/2/3 129/2/3
f 131/2/3 129/2/3 128/2/3
f 131/5/3 130/5/3 129/5/3
f 132/2/3 122/2/3 130/2/3
f 132/5/3 130/5/3 131/5/3
f 133/2/3 122/2/3 132/2/3
f 134/2/3 132/2/3 131/2/3
f 134/5/3 133/5/3 132/5/3
f 135/2/3 122/2/3 133/2/3
f 135/5/3 133/5/3 134/5/3
f 136/2/3 122/2/3 135/2/3
f 137/2/3 135/2/3 134/2/3
f 137/5/3 136/5/3 135/5/3
f 138/2/3 122/2/3 136/2/3
f 138/5/3 136/5/3 137/5/3
f 139/2/3 122/2/3 138/2/3
f 140/2/3 138/2/3 137/2/3
f 140/5/3 139/5/3 138/5/3
f 141/2/3 122/2/3 139/2/3
f 141/5/3 139/5/3 140/5/3
f 142/2/3 107/2/3 122/2/3
f 142/2/3 122/2/3 141/2/3
f 143/2/3 141/2/3 140/2/3
f 143/5/3 142/5/3 141/5/3
f 144/2/3 107/2/3 142/2/3
f 144/5/3 142/5/3 143/5/3
f 145/2/3 107/2/3 144/2/3
f 146/2/3 144/2/3 143/2/3
f 146/5/3 145/5/3 144/5/3
f 147/2/3 107/2/3 145/2/3
f 147/5/3 145/5/3 146/5/3
f 148/2/3 143/2/3 140/2/3
f 148/2/3 125/2/3 104/2/3
f 148/2/3 147/2/3 146/2/3
f 148/2/3 146/2/3 143/2/3
f 148/2/3 140/2/3 137/2/3
f 148/2/3 137/2/3 134/2/3
f 148/2/3 134/2/3 131/2/3
f 148/2/3 131/2/3 128/2/3
f 148/2/3 128/2/3 125/2/3
f 149/2/3 147/2/3 148/2/3
f 150/2/3 107/2/3 147/2/3
f 150/2/3 147/2/3 149/2/3
f 150/5/3 108/5/3 107/5/3
f 151/2/3 97/2/3 108/2/3
f 151/5/3 108/5/3 150/5/3
f 152/5/3 149/5/3 148/5/3
f 152/2/3 148/2/3 104/2/3
f 153/2/3 150/2/3 149/2/3
f 153/5/3 149/5/3 152/5/3
f 153/2/3 151/2/3 150/2/3
f 154/2/3 151/2/3 153/2/3
f 155/2/3 153/2/3 152/2/3
f 155/5/3 154/5/3 153/5/3
f 156/2/3 151/2/3 154/2/3
f 156/5/3 154/5/3 155/5/3
f 157/2/3 151/2/3 156/2/3
f 158/2/3 151/2/3 157/2/3
f 159/2/3 97/2/3 151/2/3
f 159/2/3 151/2/3 158/2/3
f 160/2/3 156/2/3 155/2/3
f 160/5/3 157/5/3 156/5/3
f 161/2/3 158/2/3 157/2/3
f 161/5/3 157/5/3 160/5/3
f 162/2/3 158/2/3 161/2/3
f 163/2/3 161/2/3 160/2/3
f 163/5/3 162/5/3 161/5/3
f 164/2/3 158/2/3 162/2/3
f 164/5/3 162/5/3 163/5/3
f 165/2/3 158/2/3 164/2/3
f 166/2/3 164/2/3 163/2/3
f 166/5/3 165/5/3 164/5/3
f 167/2/3 158/2/3 165/2/3
f 167/5/3 165/5/3 166/5/3
f 168/2/3 158/2/3 167/2/3
f 169/2/3 167/2/3 166/2/3
f 169/5/3 168/5/3 167/5/3
f 170/2/3 158/2/3 168/2/3
f 170/5/3 168/5/3 169/5/3
f 171/2/3 158/2/3 170/2/3
f 172/2/3 170/2/3 169/2/3
f 172/5/3 171/5/3 170/5/3
f 173/2/3 158/2/3 171/2/3
f 173/5/3 171/5/3 172/5/3
f 174/2/3 104/2/3 95/2/3
f 174/2/3 160/2/3 155/2/3
f 174/2/3 173/2/3 172/2/3
f 174/2/3 172/2/3 169/2/3
f 174/2/3 169/2/3 166/2/3
f 174/2/3 166/2/3 163/2/3
f 174/2/3 163/2/3 160/2/3
f 174/2/3 152/2/3 104/2/3
f 174/2/3 155/2/3 152/2/3
f 175/2/3 173/2/3 174/2/3
f 176/2/3 174/2/3 95/2/3
f 176/5/3 175/5/3 174/5/3
f 177/2/3 173/2/3 175/2/3
f 177/5/3 175/5/3 176/5/3
f 178/2/3 173/2/3 177/2/3
f 179/2/3 177/2/3 176/2/3
f 179/5/3 178/5/3 177/5/3
f 180/2/3 173/2/3 178/2/3
f 180/5/3 178/5/3 179/5/3
f 181/2/3 173/2/3 180/2/3
f 182/2/3 180/2/3 179/2/3
f 182/5/3 181/5/3 180/5/3
f 183/2/3 173/2/3 181/2/3
f 183/5/3 181/5/3 182/5/3
f 184/2/3 173/2/3 183/2/3
f 185/2/3 183/2/3 182/2/3
f 185/5/3 184/5/3 183/5/3
f 186/2/3 173/2/3 184/2/3
f 186/5/3 184/5/3 185/5/3
f 187/2/3 173/2/3 186/2/3
f 188/2/3 186/2/3 185/2/3
f 188/5/3 187/5/3 186/5/3
f 189/2/3 173/2/3 187/2/3
f 189/5/3 187/5/3 188/5/3
f 190/2/3 173/2/3 189/2/3
f 191/2/3 189/2/3 188/2/3
f 191/5/3 190/5/3 189/5/3
f 192/2/3 173/2/3 190/2/3
f 192/5/3 190/5/3 191/5/3
f 193/2/3 173/2/3 192/2/3
f 194/2/3 192/2/3 191/2/3
f 194/5/3 193/5/3 192/5/3
f 195/2/3 173/2/3 193/2/3
f 195/5/3 193/5/3 194/5/3
f 196/2/3 158/2/3 173/2/3
f 196/2/3 173/2/3 195/2/3
f 197/2/3 195/2/3 194/2/3
f 197/5/3 196/5/3 195/5/3
f 198/2/3 158/2/3 196/2/3
f 198/5/3 196/5/3 197/5/3
f 199/5/3 159/5/3 158/5/3
f 199/2/3 158/2/3 198/2/3
f 199/2/3 198/2/3 197/2/3
f 200/2/3 97/2/3 159/2/3
f 200/5/3 159/5/3 199/5/3
f 201/2/3 197/2/3 194/2/3
f 201/2/3 194/2/3 191/2/3
f 201/2/3 200/2/3 199/2/3
f 201/2/3 191/2/3 188/2/3
f 201/2/3 188/2/3 185/2/3
f 201/2/3 185/2/3 182/2/3
f 201/2/3 182/2/3 179/2/3
f 201/2/3 179/2/3 176/2/3
f 201/2/3 176/2/3 95/2/3
f 201/2/3 199/2/3 197/2/3
f 202/2/3 200/2/3 201/2/3
f 203/2/3 97/2/3 200/2/3
f 203/2/3 200/2/3 202/2/3
f 206/1/3 205/1/3 204/1/3
f 207/1/3 205/1/3 206/1/3
f 212/1/3 209/1/3 208/1/3
f 213/1/3 209/1/3 212/1/3
f 214/1/3 211/1/3 210/1/3
f 215/1/3 211/1/3 214/1/3
f 220/4/3 217/4/3 216/4/3
f 220/4/3 219/4/3 218/4/3
f 220/4/3 218/4/3 217/4/3
f 221/4/3 219/4/3 220/4/3
f 222/3/3 221/3/3 220/3/3
f 222/4/3 219/4/3 221/4/3
f 223/4/3 219/4/3 222/4/3
f 224/3/3 223/3/3 222/3/3
f 225/4/3 219/4/3 223/4/3
f 225/3/3 223/3/3 224/3/3
f 226/3/3 222/3/3 220/3/3
f 226/3/3 224/3/3 222/3/3
f 227/3/3 224/3/3 226/3/3
f 228/3/3 224/3/3 227/3/3
f 229/4/3 225/4/3 224/4/3
f 229/3/3 224/3/3 228/3/3
f 230/3/3 228/3/3 227/3/3
f 231/4/3 229/4/3 228/4/3
f 231/3/3 228/3/3 230/3/3
f 232/3/3 226/3/3 220/3/3
f 233/3/3 226/3/3 232/3/3
f 234/3/3 230/3/3 227/3/3
f 235/4/3 231/4/3 230/4/3
f 235/3/3 230/3/3 234/3/3
f 236/4/3 233/4/3 232/4/3
f 236/4/3 234/4/3 233/4/3
f 236/4/3 235/4/3 234/4/3
f 237/4/3 235/4/3 236/4/3
f 238/4/3 225/4/3 229/4/3
f 238/4/3 235/4/3 237/4/3
f 238/4/3 229/4/3 231/4/3
f 238/4/3 231/4/3 235/4/3
f 239/4/3 219/4/3 225/4/3
f 239/4/3 225/4/3 238/4/3
f 240/6/4 241/6/4 246/6/4
f 241/7/4 242/7/4 247/7/4
f 246/6/4 241/6/4 247/6/4
f 242/6/4 243/6/4 248/6/4
f 247/7/4 242/7/4 248/7/4
f 243/7/4 244/7/4 249/7/4
f 248/6/4 243/6/4 249/6/4
f 244/6/4 245/6/4 250/6/4
f 249/7/4 244/7/4 250/7/4
f 250/6/4 245/6/4 251/6/4
f 256/6/5 253/6/5 252/6/5
f 259/6/5 255/6/5 254/6/5
f 260/6/5 256/6/5 252/6/5
f 260/4/5 257/4/5 256/4/5
f 261/3/5 258/3/5 257/3/5
f 261/4/5 257/4/5 260/4/5
f 262/4/5 259/4/5 258/4/5
f 262/3/5 258/3/5 261/3/5
f 263/6/5 255/6/5 259/6/5
f 263/4/5 259/4/5 262/4/5
f 264/6/5 260/6/5 252/6/5
f 264/3/5 261/3/5 260/3/5
f 264/3/5 263/3/5 262/3/5
f 264/3/5 262/3/5 261/3/5
f 265/6/5 255/6/5 263/6/5
f 265/3/5 263/3/5 264/3/5
f 266/6/5 264/6/5 252/6/5
f 266/6/5 265/6/5 264/6/5
f 267/6/5 255/6/5 265/6/5
f 267/6/5 265/6/5 266/6/5
f 270/1/5 269/1/5 268/1/5
f 271/1/5 269/1/5 270/1/5
f 274/1/5 273/1/5 272/1/5
f 275/1/5 273/1/5 274/1/5
f 278/6/5 277/6/5 276/6/5
f 279/6/5 277/6/5 278/6/5
f 282/6/5 281/6/5 280/6/5
f 283/6/5 281/6/5 282/6/5
f 284/1/6 285/1/6 286/1/6
f 286/1/6 285/1/6 287/1/6
f 288/1/6 289/1/6 290/1/6
f 290/1/6 289/1/6 291/1/6
f 292/6/6 293/6/6 294/6/6
f 294/6/6 293/6/6 295/6/6
f 296/6/6 297/6/6 298/6/6
f 298/6/6 297/6/6 299/6/6
